<?xml version="1.0" encoding="UTF-8"?><svg id="Layer_2" xmlns="http://www.w3.org/2000/svg" viewBox="0 0 62.07 66.7"><defs><style>.cls-1{fill:#ff1012;}</style></defs><g id="Layer_1-2"><g><path class="cls-1" d="M.47,50.79c-.3-.24-.48-.61-.47-1,0-.39,.2-.76,.51-.99l7.41-5.5c.45-.34,1.08-.33,1.52,.02l2.99,2.38,2.47-3.11c.43-.54,1.22-.63,1.76-.2l1.48,1.18v-.19c0-.99,.32-1.9,.91-2.65,.42-.53,.97-.94,1.63-1.23l.11-.05-.07-.09c-1.4-1.74-2.37-4.67-1.22-6.97l8.02-15.97L18.75,7.88l-.06,.1c-2.09,3.55-6.26,12.35,.08,17.4,.54,.43,.63,1.22,.2,1.76-.43,.54-1.22,.63-1.76,.2-7.85-6.24-3.24-17.22,.29-22.15,.21-.3,.54-.49,.91-.52,.32-.03,.64,.07,.89,.27,.03,.03,.06,.05,.09,.08l9.3,9.07,1.88-3.75c.17-.34,.48-.58,.85-.66,.37-.08,.75,0,1.05,.24l22.39,17.8,3.79-2.36L30.95,3.33l-1.74,5.06c-.11,.32-.33,.57-.63,.72-.3,.15-.64,.17-.96,.06-.14-.05-.26-.11-.37-.2-.41-.33-.57-.89-.4-1.39L29.16,.85c.13-.39,.44-.68,.83-.79,.39-.11,.81-.03,1.13,.22l30.47,24.22c.32,.25,.49,.65,.47,1.05-.02,.4-.24,.77-.59,.99l-6.04,3.77c-.45,.28-1.03,.25-1.44-.08L32.12,12.83l-10.39,20.69c-.74,1.49,.25,3.89,1.61,4.97l3.14,2.49c1.36,1.08,3.95,1.52,5.24,.47l14.65-11.89c.42-.34,1.01-.37,1.46-.08l12.08,7.75s.07,.05,.1,.07c.25,.2,.42,.49,.46,.81,.05,.36-.06,.73-.3,1-4.01,4.55-13.66,11.52-21.51,5.27-.3-.24-.47-.59-.47-.97,0-.38,.16-.74,.46-.98l8.2-6.7c.46-.38,1.1-.38,1.57-.01,.07,.05,.13,.12,.19,.19,.44,.53,.36,1.32-.18,1.76l-6.9,5.64,.12,.06c6.07,3.23,12.88-2.27,15.53-4.79l.08-.08-10.03-6.43-13.95,11.32c-1.6,1.3-4.18,1.52-6.58,.56l-.1-.04-.02,.11c-.12,.77-.4,1.45-.86,2.02-.59,.74-1.41,1.26-2.38,1.48l-.18,.04,1.48,1.18c.54,.43,.63,1.22,.2,1.76l-2.47,3.11,2.99,2.38c.44,.35,.59,.96,.37,1.48l-3.6,8.27c-.05,.18-.13,.35-.24,.49-.43,.54-1.22,.63-1.76,.2h0s0,0,0,0L.47,50.79Zm2.83-.95l17.11,13.6,2.65-6.09-14.43-11.47-5.33,3.96Zm11.09-2.58l6.04,4.8,1.69-2.13-6.04-4.8-1.69,2.13Zm9.1-5.25c-.76-.61-1.88-.48-2.48,.28-.61,.76-.48,1.88,.28,2.48,.76,.6,1.88,.48,2.48-.28,.6-.76,.48-1.87-.29-2.48Z"/><path class="cls-1" d="M27.62,29.36c-.48-.38-.61-1.05-.32-1.58l5.52-10.01c.16-.29,.43-.5,.75-.6,.32-.09,.66-.06,.95,.11,.06,.04,.12,.07,.18,.12,.48,.38,.61,1.04,.32,1.58l-5.52,10.01c-.16,.29-.43,.51-.75,.6-.32,.09-.66,.06-.95-.11-.06-.03-.12-.07-.18-.12Z"/><path class="cls-1" d="M24.21,35.7c-.48-.38-.61-1.07-.3-1.6l1.45-2.51c.17-.29,.44-.5,.76-.58,.32-.09,.66-.04,.95,.12,.06,.03,.11,.07,.16,.11,.48,.38,.61,1.07,.3,1.6l-1.45,2.51c-.17,.29-.44,.5-.76,.58-.32,.09-.66,.04-.95-.12-.06-.03-.11-.07-.15-.1Z"/></g></g></svg>