<?xml version="1.0" encoding="UTF-8"?><svg id="Layer_2" xmlns="http://www.w3.org/2000/svg" viewBox="0 0 67.79 63.63"><defs><style>.cls-1{fill:#ff1012;}</style></defs><g id="Layer_1-2"><g><path class="cls-1" d="M29.12,52.72c-.41,.62-.24,1.45,.38,1.86l12.31,8.2c2.35,1.56,5.52,.92,7.09-1.42l18.04-27.08c1.56-2.35,.93-5.52-1.42-7.09L25.98,.85c-2.35-1.56-5.52-.92-7.09,1.42L.86,29.36c-1.56,2.35-.93,5.52,1.42,7.08l22.22,14.8c.62,.41,1.45,.25,1.86-.37,.41-.62,.24-1.45-.37-1.86L3.76,34.21c-1.11-.74-1.42-2.25-.67-3.37L21.13,3.76c.74-1.11,2.25-1.42,3.37-.68l39.54,26.33c1.11,.74,1.42,2.25,.67,3.37l-18.04,27.08c-.74,1.12-2.25,1.42-3.37,.68l-12.32-8.2c-.62-.41-1.45-.24-1.86,.37Z"/><path class="cls-1" d="M31.59,50.85l10.85,7.23c.62,.41,1.45,.24,1.86-.37l17.5-26.27c.41-.62,.24-1.45-.37-1.86l-10.85-7.23c-.62-.41-1.45-.24-1.86,.37l-17.5,26.27c-.41,.61-.24,1.45,.37,1.86Zm2.6-1.49l16.01-24.04,8.62,5.74-16.01,24.04-8.62-5.74Z"/><path class="cls-1" d="M38.77,22.85c.62,.41,1.45,.25,1.86-.37l.76-1.14c.41-.62,.24-1.45-.37-1.86l-2.37-1.58c-.62-.41-1.45-.24-1.86,.37l-.76,1.14c-.41,.62-.24,1.45,.37,1.86l2.38,1.58Z"/><path class="cls-1" d="M32.01,32.99c.62,.41,1.45,.25,1.86-.37l.76-1.14c.41-.62,.24-1.45-.37-1.86l-2.38-1.58c-.62-.41-1.45-.24-1.86,.37l-.76,1.14c-.41,.62-.24,1.45,.37,1.86l2.38,1.58Z"/><path class="cls-1" d="M25.25,43.14c.62,.41,1.45,.24,1.86-.37l.76-1.14c.41-.62,.24-1.45-.37-1.86l-2.38-1.58c-.62-.41-1.45-.25-1.86,.37l-.76,1.14c-.41,.62-.24,1.45,.37,1.86l2.37,1.58Z"/><path class="cls-1" d="M30.3,15.6l.76-1.14c.41-.62,.24-1.45-.37-1.86l-2.38-1.58c-.62-.41-1.45-.24-1.86,.37l-.76,1.14c-.41,.62-.24,1.45,.37,1.86l2.38,1.58c.62,.41,1.45,.24,1.86-.37Z"/><path class="cls-1" d="M23.54,25.74l.76-1.14c.41-.62,.24-1.45-.37-1.86l-2.38-1.58c-.62-.41-1.45-.24-1.86,.37l-.76,1.14c-.41,.62-.24,1.45,.37,1.86l2.38,1.58c.62,.41,1.45,.25,1.86-.37Z"/><path class="cls-1" d="M16.79,35.89l.76-1.14c.41-.62,.24-1.45-.37-1.86l-2.38-1.58c-.62-.41-1.45-.25-1.86,.37l-.76,1.14c-.41,.62-.24,1.45,.37,1.86l2.38,1.58c.62,.41,1.45,.24,1.86-.37Z"/></g></g></svg>