<?xml version="1.0" encoding="UTF-8"?><svg id="Layer_2" xmlns="http://www.w3.org/2000/svg" viewBox="0 0 41.14 69.49"><defs><style>.cls-1{fill:#ff1012;}</style></defs><g id="Layer_1-2"><path class="cls-1" d="M18.94,.1L.84,7.41c-.35,.14-.63,.43-.76,.79-.13,.36-.1,.76,.09,1.1,.09,.16,8.93,16.32,9.19,22.57,.09,2.06-2.17,8.11-3.61,11.41,0,0,0,0,0,.01-.24,.57-.06,1.22,.43,1.59,.1,.08,10.33,7.82,13.46,10.46,3.93,3.33,15.11,13.69,15.22,13.8,.38,.35,.93,.45,1.41,.26,.34-.13,.6-.4,.73-.72,.06-.14,.1-.29,.1-.44,0-.15,.89-14.84,1.43-19.79,.46-4.28,2.58-17.55,2.6-17.68,.1-.63-.25-1.24-.85-1.46-3.27-1.25-8.97-3.77-10.31-5.24-.78-.85-2.08-2.74-3.83-6.88-.29-.68-1.07-1-1.76-.71-.68,.29-1,1.07-.71,1.76,1.53,3.6,2.98,6.17,4.32,7.64,1.83,2.01,7.82,4.55,10.32,5.54-.52,3.28-2.06,13.07-2.45,16.75-.4,3.71-.98,12.53-1.26,17.09-3.46-3.19-10.27-9.44-13.24-11.96-2.69-2.27-10.2-8-12.74-9.92,1.04-2.51,3.54-8.8,3.42-11.61-.24-5.81-6.62-18.3-8.8-22.42L18.62,3.12c.66,2,1.95,5.87,3.05,9.17l-7.17,2.89c-.69,.28-1.02,1.06-.74,1.74l7.09,17.57c-2.17,1.53-3.09,4.41-2.05,6.97,1.21,2.99,4.63,4.45,7.62,3.24,1.5-.6,2.61-1.76,3.2-3.14,.59-1.38,.65-2.98,.04-4.48-.48-1.18-1.3-2.15-2.39-2.81-.63-.38-1.46-.18-1.84,.45-.39,.63-.18,1.46,.45,1.84,.59,.35,1.03,.88,1.29,1.52,.65,1.62-.13,3.48-1.76,4.13-1.62,.66-3.48-.13-4.13-1.76-.66-1.62,.13-3.48,1.76-4.13,.69-.28,1.02-1.06,.74-1.74,0,0,0,0,0,0h0s-7.03-17.41-7.03-17.41l7.1-2.87c.66-.26,.99-1,.77-1.67-1.62-4.83-3.9-11.71-3.9-11.71-.12-.35-.37-.64-.71-.79-.34-.16-.72-.17-1.07-.03Z"/></g></svg>