<?xml version="1.0" encoding="UTF-8"?><svg id="Layer_2" xmlns="http://www.w3.org/2000/svg" viewBox="0 0 72.84 33.58"><defs><style>.cls-1{fill:#ff1012;}</style></defs><g id="Layer_1-2"><g><path class="cls-1" d="M2.96,3.97L.17,14.68c-.73,2.83,.97,5.74,3.8,6.48l47.6,12.38c.21,.06,.44,.06,.65,0l8.27-2c.46-.11,.83-.46,.97-.92l2.28-7.64,4.83,3.93-4.29,1.06c-.72,.18-1.16,.9-.98,1.62,.18,.72,.9,1.16,1.62,.98l6.91-1.7c.49-.12,.88-.51,.99-1.01,.08-.34,.02-.68-.15-.97-.08-.14-.18-.26-.31-.36l-8.47-6.89c-.35-.28-.81-.37-1.24-.24-.43,.13-.76,.47-.89,.9l-2.64,8.82-7.19,1.74L4.65,18.56c-1.4-.36-2.25-1.8-1.88-3.21L5.55,4.65c.18-.68,.61-1.25,1.21-1.61,.6-.35,1.31-.45,1.99-.28l9.33,2.43-3.1,11.88c-.18,.71,.23,1.43,.93,1.63l4.01,1.13c.35,.1,.72,.05,1.03-.13,.31-.18,.54-.48,.63-.82l3.11-11.97,29.35,7.63-2.72,10.98-17.43-4.5c-.72-.18-1.45,.25-1.63,.96-.18,.72,.25,1.45,.96,1.63l18.74,4.84c.35,.09,.71,.04,1.02-.15,.31-.18,.53-.48,.61-.83l2.76-11.15s1.26-3.44-.36-4.05L24.08,3.98c-.35-.09-.71-.04-1.02,.14-.3,.18-.53,.47-.62,.82l-3.1,11.94-1.43-.4,3.1-11.91c.09-.34,.04-.71-.14-1.02h0c-.18-.31-.48-.53-.82-.62L9.43,.17C8.06-.18,6.63,.02,5.4,.73c-1.22,.72-2.09,1.87-2.45,3.24Z"/><path class="cls-1" d="M31.1,20.75c-.18-.3-.47-.53-.84-.62l-4.89-1.2c-.72-.18-1.45,.26-1.62,.98-.18,.72,.26,1.44,.98,1.62l4.89,1.2c.72,.18,1.45-.26,1.62-.98,.08-.35,.02-.71-.15-1Z"/></g></g></svg>