<?xml version="1.0" encoding="UTF-8"?><svg id="Layer_2" xmlns="http://www.w3.org/2000/svg" viewBox="0 0 67.15 69.42"><defs><style>.cls-1{fill:#ff1012;}</style></defs><g id="Layer_1-2"><g><path class="cls-1" d="M66.16,14.46L12.93,.05c-.71-.19-1.45,.23-1.65,.94L.05,42.5c-.19,.71,.23,1.45,.94,1.64l20.09,5.44-1.3,4.8-13.02,2.71c-.61,.13-1.05,.65-1.07,1.27-.02,.62,.39,1.17,.99,1.33l35.71,9.67c.6,.16,1.23-.11,1.53-.65,.3-.54,.18-1.22-.28-1.64l-9.88-8.91,1.3-4.8,19.16,5.19c.72,.19,1.45-.23,1.64-.94l11.24-41.51c.19-.71-.23-1.45-.95-1.64Zm-28.48,50.85l-24.89-6.74,8.34-1.73c.49-.1,.89-.48,1.02-.96l1.52-5.6,8.8,2.38-1.52,5.6c-.13,.49,.02,1.01,.4,1.35l6.33,5.71Zm17.26-14.54L9.39,38.44l7.86-29.01,40.45,10.96-4.71,17.4c-.19,.71,.23,1.45,.94,1.64s1.45-.23,1.64-.94l5.06-18.69c.19-.71-.23-1.45-.94-1.64L16.66,6.49c-.71-.19-1.45,.23-1.64,.94L6.45,39.03c-.19,.71,.23,1.45,.94,1.64l46.84,12.69-.61,2.25L2.99,41.9,13.52,2.98l50.64,13.72-9.23,34.08Z"/><path class="cls-1" d="M53.23,42.02c-.71-.19-1.45,.23-1.64,.94l-.72,2.66c-.19,.71,.23,1.45,.94,1.64,.71,.19,1.45-.23,1.64-.94l.72-2.66c.19-.71-.23-1.45-.94-1.65Z"/></g></g></svg>