<?xml version="1.0" encoding="UTF-8"?><svg id="Layer_2" xmlns="http://www.w3.org/2000/svg" viewBox="0 0 60.86 51.53"><defs><style>.cls-1{fill:#ff1012;}</style></defs><g id="Layer_1-2"><g><path class="cls-1" d="M4.37,18.01s-.05,.1-.07,.15c-2.15,4.52-2.87,9.76-1.72,15.02,1.94,8.84,8.68,15.4,16.88,17.57,.06,.02,.12,.04,.18,.05,3.43,.88,7.1,1,10.78,.18,3.95-.87,7.45-2.7,10.31-5.19,.06-.05,.12-.1,.17-.15,6.12-5.45,9.21-13.96,7.33-22.51-2.77-12.59-15.27-20.58-27.85-17.8-7.27,1.6-13.01,6.45-16.02,12.68Zm25.49,30.35c-3.12,.69-6.23,.63-9.14-.06-.51-.76-1.67-2.65-2.2-5.07h0c-.4-1.82,.04-3.77,1.18-5.23,.97-1.25,2.32-1.96,3.8-2,1.89-.06,3.11,.27,3.84,1.02,.91,.94,1.3,2.79,1.15,5.52-.02,.4,.06,1,.6,1.57,1.11,1.16,4.13,1.65,6.87,1.84-1.85,1.09-3.89,1.92-6.1,2.41Zm15.76-24.66c.65,2.97,.62,5.93,.03,8.72-.03,.01-1.26,4.06-1.78,5.04-1.12,2.22-2.64,4.24-4.48,5.93-3.67-.02-7.28-.47-8.23-1.02,.15-3.43-.47-5.73-1.92-7.22-1.3-1.33-3.15-1.91-5.84-1.83-2.29,.07-4.36,1.15-5.83,3.03-1.62,2.08-2.25,4.87-1.68,7.46h0c.27,1.21,.66,2.3,1.07,3.22-5.77-2.59-10.3-7.79-11.76-14.43-.76-3.44-.6-6.87,.3-10.05,.79,1.81,1.96,3.95,3.52,5.49,1.63,1.62,3.5,2.59,5.4,2.79,1.87,.21,3.63-.38,4.84-1.6,1.4-1.42,1.59-2.93,1.78-4.52,.23-1.84,.51-4.13,2.89-7.53,.79-1.12,1.77-1.75,2.99-1.9,2.62-.34,5.68,1.45,7.34,2.6-.88,.97-1.94,2.52-2.29,4.58-.44,2.6,.33,5.29,2.29,8.02,1.94,2.69,4.14,4.07,6.23,4.67,.83,.24,1.72-.17,2.04-.97,.27-.67-.23-1.35-.94-1.51-1.62-.37-3.46-1.39-5.16-3.76-1.52-2.11-2.14-4.12-1.83-5.97,.42-2.56,2.49-4.06,2.51-4.07,.34-.24,.55-.62,.57-1.04,.02-.41-.15-.82-.47-1.09-.23-.19-5.66-4.76-10.64-4.13-1.99,.26-3.62,1.27-4.85,3.03-2.77,3.95-3.11,6.72-3.35,8.74-.18,1.48-.3,2.23-1.03,2.96-.64,.65-1.58,.94-2.64,.82-1.27-.14-2.62-.86-3.8-2.04-2.19-2.17-3.53-5.99-3.95-7.32,2.71-5.35,7.71-9.49,14.01-10.88,11.15-2.45,22.21,4.62,24.66,15.76Z"/><path class="cls-1" d="M19.36,.66C10.95,2.51,3.94,8.01,.14,15.75c-.33,.66-.05,1.47,.61,1.79,.66,.33,1.47,.05,1.8-.61C5.98,9.93,12.32,4.95,19.94,3.28c13.72-3.02,27.33,5.68,30.35,19.4,1.02,4.63,.73,9.43-.83,13.88-.24,.7,.12,1.46,.82,1.71s1.46-.12,1.71-.82c1.57-4.5,1.96-9.32,1.15-14.02l2.75-.6,2.31,10.5c.16,.72,.87,1.18,1.6,1.02,.72-.16,1.18-.87,1.02-1.6l-5.2-23.62c-.16-.72-.87-1.18-1.6-1.02-.72,.16-1.18,.87-1.02,1.6l2.31,10.5-2.73,.6C48.69,6.4,34.08-2.58,19.36,.66Z"/></g></g></svg>