<?xml version="1.0" encoding="UTF-8"?><svg id="Layer_2" xmlns="http://www.w3.org/2000/svg" viewBox="0 0 74.2 41.07"><defs><style>.cls-1{fill:#ff1012;}</style></defs><g id="Layer_1-2"><g><path class="cls-1" d="M.78,36.03c1.98,4.33,7.11,6.24,11.43,4.26,.03-.01,.06-.03,.08-.04l30.25-16.43c1.14-.56,1.97-.99,2.55-1.42,.85,.64,1.8,1.16,2.83,1.54,4.52,1.69,11.5,.93,17.52-6.27,2.45-2.93,4.68-3.36,6.16-3.64,.98-.19,1.99-.38,2.43-1.4,.52-1.21-.18-2.5-2.16-5.62-1.72-2.7-4.15-4.65-7.24-5.8-6.95-2.59-14.74-.33-16.92,.67-3.6,1.65-6,4.22-6.93,7.46-.3,1.04-.44,2.14-.43,3.27,0,.03,0,.07,0,.1,.02,.89,.14,1.78,.35,2.68,.12,.65,.32,1.4,.7,2.22l.13,.3s.03,.05,.04,.09c.02,.05,.04,.11,.07,.16,.39,.85,.89,1.64,1.47,2.35-.54,.32-1.39,.74-1.81,.95L11.06,37.87c-2.97,1.33-6.48,.01-7.84-2.96-.66-1.44-.72-3.06-.16-4.55,.55-1.47,1.64-2.65,3.06-3.31l29.08-10.92c.69-.26,1.04-1.03,.78-1.73-.26-.69-1.03-1.04-1.73-.78L5.13,24.56s-.06,.02-.09,.04c-2.1,.96-3.69,2.67-4.5,4.83-.8,2.16-.72,4.5,.24,6.6ZM48.83,4.31c2.41-1.1,9.22-2.7,14.87-.59,2.52,.94,4.51,2.53,5.91,4.73,.36,.57,1.3,2.05,1.71,2.91-.07,.02-.15,.03-.22,.04-1.62,.31-4.65,.9-7.71,4.56-5.12,6.13-10.86,6.85-14.53,5.48-1.29-.48-2.41-1.24-3.3-2.21-.1-.14-.2-.27-.3-.4-.37-.48-.82-1.07-1.23-1.94-.23-.52-.43-1.06-.58-1.59-.03-.11-.06-.21-.08-.31,0-.02-.01-.05-.02-.07-.09-.48-.12-.9-.15-1.28-.03-.41-.06-.81-.16-1.19,0-.82,.1-1.62,.32-2.38,.72-2.49,2.55-4.43,5.46-5.76Z"/><path class="cls-1" d="M32.08,23.08c.34,.65,1.15,.91,1.81,.57l4.03-2.1c.65-.34,.91-1.15,.57-1.81-.16-.3-.42-.52-.72-.63-.34-.13-.74-.12-1.09,.07l-4.03,2.1c-.66,.34-.91,1.15-.57,1.81Z"/><path class="cls-1" d="M28.44,23.47l-18.86,9.86c-.66,.34-.91,1.15-.57,1.81,.35,.66,1.15,.91,1.81,.57l18.86-9.86c.66-.34,.91-1.15,.57-1.81-.16-.31-.42-.52-.72-.63-.34-.13-.74-.12-1.09,.07Z"/></g></g></svg>