<?xml version="1.0" encoding="UTF-8"?><svg id="Layer_2" xmlns="http://www.w3.org/2000/svg" viewBox="0 0 62.13 61.1"><defs><style>.cls-1{fill:#ff1012;}</style></defs><g id="Layer_1-2"><g><path class="cls-1" d="M61.32,4.62c-.53-.23-1.14-.09-1.53,.34-.15,.16-3.63,3.95-9.56,3.47-8.59-.7-14.8,1.63-18.17,6.74-2.5-5.59-8.26-8.89-16.85-9.58C9.27,5.11,6.44,.8,6.33,.63c-.31-.49-.89-.73-1.45-.59-.56,.14-.97,.62-1.02,1.19L0,48.71c-.05,.58,.29,1.13,.83,1.35l26.79,10.94c.13,.05,.26,.08,.4,.1,.28,.02,.57-.04,.81-.19,.36-.22,.6-.61,.63-1.03l2.91-35.87c.06-.74-.49-1.39-1.23-1.44-.74-.06-1.39,.49-1.44,1.23l-2.76,34.05L2.76,47.95,6.28,4.55c1.78,1.58,4.65,3.38,8.71,3.71,8.69,.71,13.85,4.11,15.34,10.12,.21,.86,.85,1.22,1.36,1.26,.52,.04,1.2-.2,1.55-1.02,2.44-5.69,8.08-8.22,16.77-7.51,4.05,.33,7.18-.98,9.19-2.26l-3.52,43.42-23.57,5.84c-.72,.18-1.16,.9-.98,1.62,.18,.72,.9,1.16,1.62,.98l24.5-6.07c.56-.14,.97-.62,1.01-1.19l3.85-47.48c.05-.58-.28-1.11-.81-1.34Z"/><path class="cls-1" d="M11,11.37c.06-.74-.49-1.39-1.23-1.45-.74-.06-1.39,.49-1.44,1.23l-1.87,23.05c-.06,.74,.49,1.39,1.23,1.44,.74,.06,1.39-.49,1.44-1.23l1.87-23.05Z"/><path class="cls-1" d="M7.58,36.93c-.74-.06-1.39,.49-1.45,1.23l-.27,3.36c-.06,.74,.49,1.39,1.23,1.44,.74,.06,1.39-.49,1.44-1.23l.27-3.36c.06-.74-.49-1.38-1.23-1.45Z"/></g></g></svg>